Coordinates
version=1
nRows=14
nColumns=46
inDegrees=yes

Units are S.I. units (second, meters, Newtons, ...)
Angles are in degrees.

endheader
time	pelvis_tilt	pelvis_list	pelvis_rotation	pelvis_tx	pelvis_ty	pelvis_tz	bb_angle	bb_tx	bb_ty	bb_tz	hip_flexion_r	hip_adduction_r	hip_rotation_r	knee_angle_r	knee_angle_r_beta	ankle_angle_r	subtalar_angle_r	mtp_angle_r	crank_angle_r	hip_flexion_l	hip_adduction_l	hip_rotation_l	knee_angle_l	knee_angle_l_beta	ankle_angle_l	subtalar_angle_l	mtp_angle_l	crank_angle_l	lumbar_extension	lumbar_bending	lumbar_rotation	arm_flex_r	arm_add_r	arm_rot_r	elbow_flex_r	pro_sup_r	wrist_flex_r	wrist_dev_r	arm_flex_l	arm_add_l	arm_rot_l	elbow_flex_l	pro_sup_l	wrist_flex_l	wrist_dev_l
      5.00500000	     -9.13092988	     -2.39329778	     -5.87839037	      0.12601936	      1.14155865	     -0.27352741	      0.00000000	      0.50000000	      0.00000000	      0.25000000	     81.85654972	      2.22005546	      3.16173279	     94.86946195	      1.65578447	      6.70458271	     -7.14274113	      0.00000000	      0.00000000	     44.90952431	    -11.91773650	     -2.16438789	     65.18744136	      1.13773548	    -10.96258110	     -5.28856300	      0.00000000	      0.00000000	    -67.82727965	      3.88909821	      5.81079868	     88.92586494	    -21.62840013	     45.42173419	     71.27384296	     45.81720669	      0.00000000	      0.00000000	     78.31424952	    -30.70545616	     36.13815064	     68.59991792	     50.06653458	      0.00000000	      0.00000000
      5.01000000	     -8.95207463	     -2.02494482	     -5.97524021	      0.12597223	      1.14008559	     -0.27287262	      0.00000000	      0.50000000	      0.00000000	      0.25000000	     79.99716187	      2.36494198	      3.44571374	     92.51404391	      1.61467467	      9.00821199	     -7.67627103	      0.00000000	      0.00000000	     45.95687227	    -11.55357945	     -1.86247206	     67.86381120	      1.18444695	    -11.21658853	     -6.10259204	      0.00000000	      0.00000000	    -67.79250981	      3.46856363	      5.36989399	     88.83650219	    -21.71537425	     45.50101479	     71.37448516	     45.81384174	      0.00000000	      0.00000000	     78.14823421	    -30.65690786	     35.94498212	     68.68349034	     50.07037157	      0.00000000	      0.00000000
      5.01500000	     -8.85716827	     -1.90979767	     -5.98580752	      0.12592837	      1.13850635	     -0.27248616	      0.00000000	      0.50000000	      0.00000000	      0.25000000	     78.08046908	      2.43242174	      3.37375942	     89.90496683	      1.56913769	     10.93266883	     -8.13377177	      0.00000000	      0.00000000	     47.14550882	    -11.32412103	     -1.31557441	     70.53682748	      1.23109988	    -11.48023093	     -7.02419193	      0.00000000	      0.00000000	    -67.73791822	      3.34886194	      5.10368117	     88.79975655	    -21.70710345	     45.66083084	     71.59644680	     45.79340799	      0.00000000	      0.00000000	     77.63443749	    -30.66431164	     35.37882218	     68.96657437	     50.08870651	      0.00000000	      0.00000000
      5.02000000	     -8.69483873	     -1.67622359	     -6.10556087	      0.12598463	      1.13676964	     -0.27217101	      0.00000000	      0.50000000	      0.00000000	      0.25000000	     76.09315280	      2.57259397	      3.45720094	     87.21695767	      1.52222307	     12.39095138	     -9.14449067	      0.00000000	      0.00000000	     48.16802562	    -11.07996289	     -0.98787824	     73.16587422	      1.27698541	    -11.41868840	     -7.52300266	      0.00000000	      0.00000000	    -67.71294416	      3.08058885	      4.61069797	     88.74104899	    -21.55159284	     45.85829598	     71.76020411	     45.60397515	      0.00000000	      0.00000000	     76.72166268	    -30.63464795	     33.83936418	     69.64490580	     50.13982762	      0.00000000	      0.00000000
      5.02500000	     -8.46414765	     -1.12784026	     -6.12796642	      0.12603857	      1.13498860	     -0.27174830	      0.00000000	      0.50000000	      0.00000000	      0.25000000	     74.13738429	      2.44804462	      3.83912616	     84.58420588	      1.47627289	     13.62318888	     -9.72185813	      0.00000000	      0.00000000	     49.02363211	    -10.51409309	     -0.86234745	     75.65528849	      1.32043388	    -11.00544658	     -7.98908710	      0.00000000	      0.00000000	    -67.62822852	      2.59228831	      3.93482100	     88.59672942	    -21.66970170	     45.85888332	     71.81907055	     45.60447366	      0.00000000	      0.00000000	     76.61668355	    -30.54465048	     33.82588908	     69.61849297	     50.14019446	      0.00000000	      0.00000000
      5.03000000	     -8.09104708	     -1.04449894	     -5.98306919	      0.12592929	      1.13347792	     -0.27120287	      0.00000000	      0.50000000	      0.00000000	      0.25000000	     72.04056981	      2.41687293	      3.84358612	     81.91046628	      1.42960733	     14.36454157	    -10.25781861	      0.00000000	      0.00000000	     49.83773696	    -10.33790591	     -0.43442028	     78.20478458	      1.36493098	    -10.36622250	     -8.27678069	      0.00000000	      0.00000000	    -67.83275013	      2.55440897	      3.58662989	     88.50794057	    -21.54765267	     45.88634214	     72.05997513	     45.61910574	      0.00000000	      0.00000000	     76.54705471	    -30.65899517	     33.50351793	     69.54303240	     50.11129191	      0.00000000	      0.00000000
      5.03500000	     -7.84763012	     -0.79965116	     -5.98167202	      0.12595501	      1.13151614	     -0.27057629	      0.00000000	      0.50000000	      0.00000000	      0.25000000	     70.43572932	      2.31836317	      3.97177986	     79.61237210	      1.38949802	     14.40117307	    -10.46963124	      0.00000000	      0.00000000	     50.70068683	    -10.15190868	     -0.21250727	     80.69583225	      1.40840797	     -9.44778211	     -8.27272899	      0.00000000	      0.00000000	    -67.81884517	      2.27002529	      3.16576173	     88.36648971	    -21.54604628	     45.87211710	     72.21762908	     45.61637688	      0.00000000	      0.00000000	     76.34601656	    -30.60917152	     33.11895986	     69.61557409	     50.10481589	      0.00000000	      0.00000000
      5.04000000	     -7.71496163	     -0.33912150	     -5.89119780	      0.12586504	      1.12974006	     -0.27011316	      0.00000000	      0.50000000	      0.00000000	      0.25000000	     69.00471771	      2.05096161	      4.32185374	     77.38836680	      1.35068180	     14.29380094	    -10.59368737	      0.00000000	      0.00000000	     51.60037735	     -9.70427644	     -0.12764279	     82.98389587	      1.44834221	     -8.44482232	     -8.53430599	      0.00000000	      0.00000000	    -67.71383321	      1.91975607	      2.60425527	     88.15855392	    -21.64474909	     45.87954607	     72.29649212	     45.62275447	      0.00000000	      0.00000000	     76.32516551	    -30.49091265	     32.91300394	     69.67052939	     50.10000509	      0.00000000	      0.00000000
      5.04500000	     -7.60798534	      0.02747661	     -5.82004023	      0.12559739	      1.12808319	     -0.26972248	      0.00000000	      0.50000000	      0.00000000	      0.25000000	     67.68639963	      1.81605769	      4.64220859	     75.30287665	      1.31428313	     13.83217443	    -10.51399818	      0.00000000	      0.00000000	     52.52306336	     -9.38357247	     -0.02404577	     85.19562714	      1.48694420	     -7.36274542	     -8.58559833	      0.00000000	      0.00000000	    -67.58874317	      1.65631616	      2.09340246	     87.99023721	    -21.70788178	     45.86516568	     72.42804892	     45.63751593	      0.00000000	      0.00000000	     76.33889339	    -30.36710569	     32.64512367	     69.72037851	     50.08719092	      0.00000000	      0.00000000
      5.05000000	     -7.69486554	     -0.00535173	     -5.69527283	      0.12523243	      1.12623271	     -0.26916391	      0.00000000	      0.50000000	      0.00000000	      0.25000000	     66.57559503	      1.80287212	      4.61051672	     73.29410905	      1.27922353	     12.93326402	    -10.79424511	      0.00000000	      0.00000000	     53.76084537	     -9.40918407	      0.47917004	     87.48999570	      1.52698849	     -5.84569041	     -7.72311087	      0.00000000	      0.00000000	    -67.37820564	      1.63694473	      1.93970195	     87.83030507	    -21.69870478	     45.75453809	     72.75028503	     45.66363846	      0.00000000	      0.00000000	     76.07335361	    -30.12400190	     31.82990775	     69.85654459	     50.05240152	      0.00000000	      0.00000000
      5.05500000	     -7.67576452	      0.42627622	     -5.51854044	      0.12484066	      1.12529710	     -0.26854812	      0.00000000	      0.50000000	      0.00000000	      0.25000000	     65.44471410	      1.47394981	      5.03308353	     71.37760349	      1.24577419	     12.08815690	    -10.43363262	      0.00000000	      0.00000000	     54.69148470	     -8.96552150	      0.56652484	     89.35944416	      1.55961652	     -4.93075141	     -7.99466879	      0.00000000	      0.00000000	    -67.27960710	      1.30039465	      1.37496885	     87.65918972	    -21.83906194	     45.74258390	     72.76326825	     45.66435410	      0.00000000	      0.00000000	     76.17946747	    -29.91274967	     31.68461448	     69.94009603	     50.05326734	      0.00000000	      0.00000000
      5.06000000	     -7.59882935	      0.74998227	     -5.29321274	      0.12415286	      1.12483580	     -0.26773357	      0.00000000	      0.50000000	      0.00000000	      0.25000000	     64.27782083	      1.16297043	      5.32794281	     69.43981537	      1.21195341	     10.74414012	    -10.18939619	      0.00000000	      0.00000000	     55.56829302	     -8.63775558	      0.69166949	     91.14532065	      1.59078594	     -3.72204877	     -8.07742653	      0.00000000	      0.00000000	    -67.32748006	      1.07053463	      0.93167211	     87.50224260	    -21.90418528	     45.70389866	     72.80697149	     45.66711682	      0.00000000	      0.00000000	     76.49461332	    -29.71246670	     31.40069795	     70.00655570	     50.03524460	      0.00000000	      0.00000000
      5.06500000	     -7.77810604	      0.54090510	     -5.07932490	      0.12394018	      1.12418874	     -0.26721022	      0.00000000	      0.50000000	      0.00000000	      0.25000000	     63.23671679	      1.27642130	      5.24727451	     67.39796517	      1.17631640	      8.54777740	    -11.29161542	      0.00000000	      0.00000000	     56.82372028	     -8.74642909	      1.35722492	     93.10197675	      1.62493603	     -1.94196388	     -6.88399127	      0.00000000	      0.00000000	    -67.18926545	      1.19433607	      1.28115902	     87.26218664	    -22.29024244	     45.32129360	     73.28044560	     45.67708055	      0.00000000	      0.00000000	     76.17641129	    -28.29192724	     29.34022157	     69.81103571	     49.89998569	      0.00000000	      0.00000000
      5.07000000	     -7.99702253	      0.84499306	     -4.88301178	      0.12398570	      1.12431829	     -0.26720440	      0.00000000	      0.50000000	      0.00000000	      0.25000000	     62.26833887	      0.94301706	      5.52622018	     65.38428395	      1.14117103	      6.81861339	    -11.23477473	      0.00000000	      0.00000000	     57.92068419	     -8.35465793	      1.49545789	     94.70811610	      1.65296845	     -0.62872874	     -6.83838431	      0.00000000	      0.00000000	    -67.08274990	      1.00543521	      0.92635743	     86.79348777	    -22.28041566	     44.35768494	     73.68489375	     45.62052585	      0.00000000	      0.00000000	     76.40721229	    -27.82674532	     28.85860151	     69.91787900	     49.78380073	      0.00000000	      0.00000000
